<svg width="73" height="80" viewBox="0 0 73 80" fill="none" xmlns="http://www.w3.org/2000/svg">
<path d="M58.4136 0.804532C56.5503 0.804532 54.7495 1.16391 53.0542 1.87483L48.5894 0.132631C47.8589 -0.152529 47.0308 0.031072 46.4878 0.597472C44.812 2.34357 40.1753 3.76937 36.1558 3.76937C32.1324 3.76937 27.4996 2.34747 25.8238 0.597472C25.2808 0.031062 24.4527 -0.152529 23.7222 0.132631L19.2574 1.87483C17.5621 1.16389 15.7652 0.804532 13.898 0.804532C6.2339 0.804532 0 7.03893 0 14.7025V21.847C0 22.9173 0.86719 23.7806 1.9336 23.7806C5.082 23.7806 7.7969 23.3822 10.1367 22.5853C10.6094 27.7962 12.207 32.3861 13.7578 36.8473C15.582 42.0934 17.3086 47.0543 17.3867 53.0153L9.2305 70.2963C8.86722 71.0659 9.05081 71.9838 9.67972 72.558L17.3281 79.4877C17.6953 79.8198 18.1601 79.9877 18.6289 79.9877C19.0508 79.9877 19.4766 79.851 19.8281 79.5698L27.3984 73.5893L34.9531 79.5698C35.3047 79.8471 35.7305 79.9877 36.1523 79.9877C36.5781 79.9877 37 79.8471 37.3515 79.5698L44.9062 73.5893L52.4765 79.5698C52.8281 79.8471 53.2539 79.9877 53.6757 79.9877C54.1445 79.9877 54.6093 79.8198 54.9765 79.4877L62.6249 72.558C63.2577 71.9877 63.4374 71.0697 63.0741 70.2963L54.9179 53.0153C54.9961 47.0583 56.7226 42.0973 58.5468 36.8513C60.1015 32.3865 61.6991 27.7966 62.1679 22.5853C64.5038 23.3861 67.2187 23.7806 70.3671 23.7806C71.4374 23.7806 72.3007 22.9134 72.3007 21.847V14.7025C72.3007 7.03843 66.0663 0.804532 58.4027 0.804532H58.4136ZM45.7806 5.61703C45.4408 8.22643 44.5189 8.84753 42.4056 9.52723C40.4056 10.1679 38.1868 10.5194 36.1556 10.5194C34.1244 10.5194 31.9095 10.1679 29.9095 9.52723C27.7962 8.84754 26.8704 8.22643 26.5306 5.61703C29.4525 6.94903 33.1439 7.63653 36.1556 7.63653C39.1634 7.63653 42.8548 6.94903 45.7806 5.61703ZM3.8706 14.7029C3.8706 9.17563 8.3667 4.67593 13.8976 4.67593C15.0499 4.67593 16.1632 4.86343 17.2257 5.23843C16.9405 10.8986 15.2296 14.9298 12.1398 17.2424C10.0968 18.7697 7.3781 19.6291 3.8703 19.8557L3.8706 14.7029ZM18.7146 75.5149L13.3435 70.6477L20.5544 55.3747H28.7849L25.6521 70.0347L18.7107 75.5152L18.7146 75.5149ZM36.1556 75.5813L29.5462 70.3469L32.7454 55.3699H39.5735L42.7688 70.3469L36.1594 75.5813H36.1556ZM53.5966 75.5149L46.6591 70.0344L43.5302 55.3744H51.7568L58.9677 70.6474L53.5966 75.5149ZM54.8974 35.5769C53.1865 40.491 51.4247 45.5535 51.1005 51.5029H21.2135C20.8893 45.5537 19.1276 40.4869 17.4166 35.5729C15.7213 30.6979 14.1119 26.0729 13.8932 20.7409C14.0846 20.612 14.2721 20.4792 14.4596 20.3386C18.5377 17.2878 20.7682 12.237 21.0963 5.31159L22.5651 4.73737C22.6784 6.52257 22.9479 7.97567 23.5339 9.20217C24.7058 11.6514 26.9245 12.6319 28.7292 13.2139C30.4831 13.7725 32.3776 14.1475 34.2214 14.3037V21.6592C34.2214 22.6396 33.4362 25.335 30.9011 25.335H22.2839C22.0339 25.335 21.8737 25.2647 21.7057 25.0772L20.6276 23.8858C19.9089 23.0928 18.6862 23.0303 17.8932 23.749C17.1002 24.4678 17.0378 25.6904 17.7565 26.4834L18.8307 27.6709C19.737 28.6748 20.9284 29.2061 22.2838 29.2061H30.901C33.233 29.2061 34.9752 28.1866 36.1588 26.792C37.3424 28.1865 39.0807 29.2061 41.4166 29.2061H50.0338C51.3893 29.2061 52.5846 28.6749 53.483 27.6749L54.5611 26.4835C55.2799 25.6906 55.2174 24.4679 54.4244 23.7491C53.6314 23.0303 52.4088 23.0929 51.69 23.8859L50.608 25.0812C50.4439 25.2648 50.2799 25.3351 50.0299 25.3351H41.4127C40.3775 25.3351 39.5689 24.9249 38.9439 24.0851C38.354 23.2921 38.0884 22.296 38.0884 21.6593V14.3038C39.9361 14.1475 41.8306 13.7725 43.5845 13.214C45.3853 12.6359 47.604 11.6554 48.7759 9.20617C49.3618 7.97957 49.6314 6.52647 49.7447 4.74137L51.2135 5.31559C51.5416 12.2414 53.7721 17.2956 57.8502 20.3426C58.0337 20.4793 58.2252 20.6121 58.4166 20.7449C58.2017 26.0808 56.5924 30.7058 54.8932 35.5809L54.8974 35.5769ZM68.4444 19.8499C64.9366 19.6273 62.2178 18.764 60.1749 17.2366C57.0851 14.928 55.378 10.8928 55.089 5.23263C56.1515 4.85763 57.2648 4.67013 58.4171 4.67013C63.9444 4.67013 68.4441 9.16623 68.4441 14.6971L68.4444 19.8499ZM38.0924 40.5019V43.0058C38.0924 43.1035 38.1549 43.3691 38.3033 43.5722C38.4244 43.7363 38.526 43.7676 38.6783 43.7676H42.5377L42.8776 43.3926C43.5963 42.6035 44.8229 42.5449 45.612 43.2676C46.401 43.9863 46.4596 45.2128 45.737 46.0019L45.2175 46.5723C44.6003 47.2559 43.7447 47.6387 42.819 47.6387H38.6785C37.6941 47.6387 36.8426 47.3301 36.159 46.834C35.4363 47.3574 34.5731 47.6387 33.6317 47.6387H29.491C28.5653 47.6387 27.7098 47.2558 27.0848 46.5684L26.5692 46.0019C25.8505 45.2129 25.9052 43.9864 26.6942 43.2676C27.4833 42.5488 28.7098 42.6035 29.4286 43.3926L29.7685 43.7676H33.6279C34.1357 43.7676 34.2177 43.0136 34.2177 43.0058V40.5058C34.0263 40.5293 33.831 40.5449 33.6279 40.5449H29.4873C28.5576 40.5449 27.7021 40.1621 27.0811 39.4707L26.5654 38.9082C25.8467 38.1191 25.9014 36.8926 26.6904 36.1738C27.4795 35.455 28.706 35.5097 29.4248 36.2988L29.7686 36.6738H33.628C34.1358 36.6738 34.2178 35.9199 34.2178 35.9121V33.2988C34.2178 32.2285 35.085 31.3652 36.1514 31.3652C37.2217 31.3652 38.085 32.2324 38.085 33.2988V35.9121C38.085 36.0097 38.1475 36.2793 38.296 36.4785C38.4171 36.6425 38.5186 36.6738 38.671 36.6738H42.5304L42.8741 36.2988C43.5929 35.5097 44.8194 35.4511 45.6085 36.1738C46.3976 36.8925 46.4562 38.1191 45.7335 38.9082L45.2179 39.4707C44.5968 40.1621 43.7452 40.5449 42.8117 40.5449H38.6711C38.468 40.5449 38.2727 40.5293 38.0813 40.5058L38.0924 40.5019Z" fill="black"/>
</svg>
